REM DIRINDEX 1\2,1\3,1\4,1\5\6,1\5\7,1\8
REM DIRNAME folder01,folder02,folder03,folder04,folder05,folder06,folder07,folder08
TITLE ""
FILE "031 【031】Unit2 (0349 cherish_0360 dismal).mp3" MP3
  TRACK 01 AUDIO
    TITLE "0:"
    INDEX 01 00:00:00
  TRACK 02 AUDIO
    TITLE "2:cjc115_1162"
    INDEX 01 00:00:07
  TRACK 03 AUDIO
    TITLE "0:"
    INDEX 01 00:01:21
  TRACK 04 AUDIO
    TITLE "3:cjc115_1163"
    INDEX 01 00:01:28
  TRACK 05 AUDIO
    TITLE "0:"
    INDEX 01 00:02:71
  TRACK 06 AUDIO
    TITLE "4:cjc115_1164"
    INDEX 01 00:03:06
  TRACK 07 AUDIO
    TITLE "0:"
    INDEX 01 00:05:69
  TRACK 08 AUDIO
    TITLE "2:cjc115_1165"
    INDEX 01 00:07:02
  TRACK 09 AUDIO
    TITLE "0:"
    INDEX 01 00:08:17
  TRACK 10 AUDIO
    TITLE "3:cjc115_1166"
    INDEX 01 00:08:28
  TRACK 11 AUDIO
    TITLE "0:"
    INDEX 01 00:10:53
  TRACK 12 AUDIO
    TITLE "4:cjc115_1167"
    INDEX 01 00:10:59
  TRACK 13 AUDIO
    TITLE "0:"
    INDEX 01 00:14:27
  TRACK 14 AUDIO
    TITLE "2:cjc115_1168"
    INDEX 01 00:15:38
  TRACK 15 AUDIO
    TITLE "0:"
    INDEX 01 00:16:57
  TRACK 16 AUDIO
    TITLE "3:cjc115_1169"
    INDEX 01 00:16:69
  TRACK 17 AUDIO
    TITLE "0:"
    INDEX 01 00:18:25
  TRACK 18 AUDIO
    TITLE "4:cjc115_1170"
    INDEX 01 00:18:33
  TRACK 19 AUDIO
    TITLE "0:"
    INDEX 01 00:21:31
  TRACK 20 AUDIO
    TITLE "2:cjc115_1171"
    INDEX 01 00:22:40
  TRACK 21 AUDIO
    TITLE "0:"
    INDEX 01 00:23:57
  TRACK 22 AUDIO
    TITLE "3:cjc115_1172"
    INDEX 01 00:23:63
  TRACK 23 AUDIO
    TITLE "0:"
    INDEX 01 00:26:09
  TRACK 24 AUDIO
    TITLE "4:cjc115_1173"
    INDEX 01 00:26:18
  TRACK 25 AUDIO
    TITLE "0:"
    INDEX 01 00:30:28
  TRACK 26 AUDIO
    TITLE "2:cjc115_1174"
    INDEX 01 00:31:35
  TRACK 27 AUDIO
    TITLE "0:"
    INDEX 01 00:32:54
  TRACK 28 AUDIO
    TITLE "3:cjc115_1175"
    INDEX 01 00:32:60
  TRACK 29 AUDIO
    TITLE "0:"
    INDEX 01 00:34:53
  TRACK 30 AUDIO
    TITLE "4:cjc115_1176"
    INDEX 01 00:34:63
  TRACK 31 AUDIO
    TITLE "0:"
    INDEX 01 00:39:62
  TRACK 32 AUDIO
    TITLE "2:cjc115_1177"
    INDEX 01 00:40:72
  TRACK 33 AUDIO
    TITLE "0:"
    INDEX 01 00:42:18
  TRACK 34 AUDIO
    TITLE "3:cjc115_1178"
    INDEX 01 00:42:21
  TRACK 35 AUDIO
    TITLE "0:"
    INDEX 01 00:43:50
  TRACK 36 AUDIO
    TITLE "4:cjc115_1179"
    INDEX 01 00:43:60
  TRACK 37 AUDIO
    TITLE "0:"
    INDEX 01 00:46:74
  TRACK 38 AUDIO
    TITLE "2:cjc115_1180"
    INDEX 01 00:48:08
  TRACK 39 AUDIO
    TITLE "0:"
    INDEX 01 00:49:25
  TRACK 40 AUDIO
    TITLE "3:cjc115_1181"
    INDEX 01 00:49:33
  TRACK 41 AUDIO
    TITLE "0:"
    INDEX 01 00:51:56
  TRACK 42 AUDIO
    TITLE "4:cjc115_1182"
    INDEX 01 00:51:65
  TRACK 43 AUDIO
    TITLE "0:"
    INDEX 01 00:55:61
  TRACK 44 AUDIO
    TITLE "2:cjc115_1183"
    INDEX 01 00:56:71
  TRACK 45 AUDIO
    TITLE "0:"
    INDEX 01 00:57:68
  TRACK 46 AUDIO
    TITLE "3:cjc115_1184"
    INDEX 01 00:58:01
  TRACK 47 AUDIO
    TITLE "0:"
    INDEX 01 01:00:17
  TRACK 48 AUDIO
    TITLE "4:cjc115_1185"
    INDEX 01 01:00:25
  TRACK 49 AUDIO
    TITLE "0:"
    INDEX 01 01:05:50
  TRACK 50 AUDIO
    TITLE "2:cjc115_1186"
    INDEX 01 01:06:55
  TRACK 51 AUDIO
    TITLE "0:"
    INDEX 01 01:08:07
  TRACK 52 AUDIO
    TITLE "3:cjc115_1187"
    INDEX 01 01:08:13
  TRACK 53 AUDIO
    TITLE "0:"
    INDEX 01 01:09:14
  TRACK 54 AUDIO
    TITLE "4:cjc115_1188"
    INDEX 01 01:09:22
  TRACK 55 AUDIO
    TITLE "0:"
    INDEX 01 01:12:64
  TRACK 56 AUDIO
    TITLE "2:cjc115_1189"
    INDEX 01 01:14:00
  TRACK 57 AUDIO
    TITLE "0:"
    INDEX 01 01:15:09
  TRACK 58 AUDIO
    TITLE "3:cjc115_1190"
    INDEX 01 01:15:21
  TRACK 59 AUDIO
    TITLE "0:"
    INDEX 01 01:16:50
  TRACK 60 AUDIO
    TITLE "4:cjc115_1191"
    INDEX 01 01:16:65
  TRACK 61 AUDIO
    TITLE "0:"
    INDEX 01 01:20:14
  TRACK 62 AUDIO
    TITLE "2:cjc115_1192"
    INDEX 01 01:21:23
  TRACK 63 AUDIO
    TITLE "0:"
    INDEX 01 01:22:46
  TRACK 64 AUDIO
    TITLE "3:cjc115_1193"
    INDEX 01 01:22:50
  TRACK 65 AUDIO
    TITLE "0:"
    INDEX 01 01:23:73
  TRACK 66 AUDIO
    TITLE "4:cjc115_1194"
    INDEX 01 01:24:08
  TRACK 67 AUDIO
    TITLE "0:"
    INDEX 01 01:27:63
  TRACK 68 AUDIO
    TITLE "2:cjc115_1195"
    INDEX 01 01:28:72
  TRACK 69 AUDIO
    TITLE "0:"
    INDEX 01 01:30:09
  TRACK 70 AUDIO
    TITLE "3:cjc115_1196"
    INDEX 01 01:30:18
  TRACK 71 AUDIO
    TITLE "0:"
    INDEX 01 01:32:17
  TRACK 72 AUDIO
    TITLE "4:cjc115_1197"
    INDEX 01 01:32:25
  TRACK 73 AUDIO
    TITLE "0:"
    INDEX 01 01:36:03
